<?xml version="1.0" encoding="UTF-8"?>
<svg version="1.1" xmlns="http://www.w3.org/2000/svg" width="96" height="96">
<path d="M0 0 C0.9075 0.00257812 1.815 0.00515625 2.75 0.0078125 C4.11125 0.00394531 4.11125 0.00394531 5.5 0 C7.75 0.1328125 7.75 0.1328125 8.75 1.1328125 C8.811875 2.4115625 8.87375 3.6903125 8.9375 5.0078125 C9.11672902 7.18567707 9.11672902 7.18567707 9.75 9.1328125 C12.49928039 10.92447668 12.49928039 10.92447668 15.75 12.1328125 C20.38326694 16.21450005 24.65735788 20.89567509 25.75 27.1328125 C25.83220526 29.52224545 25.85745472 31.91386097 25.84765625 34.3046875 C25.8462413 34.9871051 25.84482635 35.66952271 25.84336853 36.37261963 C25.83779084 38.54272934 25.82524254 40.7127342 25.8125 42.8828125 C25.80748211 44.35807142 25.80291971 45.83333197 25.79882812 47.30859375 C25.78782875 50.91670048 25.77057953 54.52474625 25.75 58.1328125 C26.53375 58.2565625 27.3175 58.3803125 28.125 58.5078125 C30.75 59.1328125 30.75 59.1328125 32.75 61.1328125 C33.30350773 67.22139752 33.30350773 67.22139752 31.7109375 69.84375 C28.67907014 71.83681022 25.55829463 71.44761034 22.0625 71.3203125 C21.0096582 71.30000977 21.0096582 71.30000977 19.93554688 71.27929688 C18.20670171 71.24401432 16.47825235 71.19020833 14.75 71.1328125 C14.46125 71.75671875 14.1725 72.380625 13.875 73.0234375 C12.26092371 76.04983055 10.93002274 76.80780303 7.75 78.1328125 C2.60343003 78.84594323 -1.14211626 78.69647265 -5.8125 76.3203125 C-8.25 74.1328125 -8.25 74.1328125 -9.25 71.1328125 C-10.29800781 71.16761719 -11.34601562 71.20242187 -12.42578125 71.23828125 C-13.80467147 71.26642187 -15.18357902 71.29372174 -16.5625 71.3203125 C-17.25279297 71.34544922 -17.94308594 71.37058594 -18.65429688 71.39648438 C-23.73936074 71.47018095 -23.73936074 71.47018095 -26.20703125 69.83984375 C-27.97557834 66.94525543 -27.60187635 64.41699174 -27.25 61.1328125 C-26 59.1953125 -26 59.1953125 -24.25 58.1328125 C-22.93 58.1328125 -21.61 58.1328125 -20.25 58.1328125 C-20.27618408 57.21580566 -20.30236816 56.29879883 -20.3293457 55.35400391 C-20.41527579 51.90592316 -20.47758531 48.45900255 -20.5246582 45.01025391 C-20.54958838 43.52634571 -20.58354625 42.04255755 -20.62719727 40.55908203 C-20.88317524 31.62695642 -20.92490157 23.58525924 -15.25 16.1328125 C-11.83385143 12.96234178 -8.68969389 10.61271046 -4.25 9.1328125 C-4.105625 7.8334375 -3.96125 6.5340625 -3.8125 5.1953125 C-3.25660194 0.19222998 -3.25660194 0.19222998 0 0 Z M0.75 3.1328125 C4.75 4.1328125 4.75 4.1328125 4.75 4.1328125 Z M-0.25 4.1328125 C-0.25 5.7828125 -0.25 7.4328125 -0.25 9.1328125 C0.08 9.1328125 0.41 9.1328125 0.75 9.1328125 C0.75 7.4828125 0.75 5.8328125 0.75 4.1328125 C0.42 4.1328125 0.09 4.1328125 -0.25 4.1328125 Z M4.75 4.1328125 C4.75 5.7828125 4.75 7.4328125 4.75 9.1328125 C5.08 9.1328125 5.41 9.1328125 5.75 9.1328125 C5.75 7.4828125 5.75 5.8328125 5.75 4.1328125 C5.42 4.1328125 5.09 4.1328125 4.75 4.1328125 Z M-10.125 17.0078125 C-13.98329964 20.86611214 -16.06947332 24.78316906 -16.36352539 30.23925781 C-16.35828857 30.97241211 -16.35305176 31.70556641 -16.34765625 32.4609375 C-16.34443359 33.26015625 -16.34121094 34.059375 -16.33789062 34.8828125 C-16.32951172 35.7078125 -16.32113281 36.5328125 -16.3125 37.3828125 C-16.30798828 38.22328125 -16.30347656 39.06375 -16.29882812 39.9296875 C-16.28707961 41.99742651 -16.26914522 44.06512874 -16.25 46.1328125 C-13.28 46.1328125 -10.31 46.1328125 -7.25 46.1328125 C-7.25 47.4528125 -7.25 48.7728125 -7.25 50.1328125 C-10.22 50.1328125 -13.19 50.1328125 -16.25 50.1328125 C-16.25 50.7928125 -16.25 51.4528125 -16.25 52.1328125 C-11.3 52.1328125 -6.35 52.1328125 -1.25 52.1328125 C-1.25 53.4528125 -1.25 54.7728125 -1.25 56.1328125 C-6.2 56.1328125 -11.15 56.1328125 -16.25 56.1328125 C-16.25 56.7928125 -16.25 57.4528125 -16.25 58.1328125 C-3.71 58.1328125 8.83 58.1328125 21.75 58.1328125 C21.8325 53.3478125 21.915 48.5628125 22 43.6328125 C22.05462402 41.39274414 22.05462402 41.39274414 22.11035156 39.10742188 C22.18259345 30.44305664 21.61597836 25.00526211 16.14453125 18.109375 C7.59755782 10.80751621 -0.85145991 10.95985157 -10.125 17.0078125 Z M-22.25 62.1328125 C-22.58 63.4528125 -22.91 64.7728125 -23.25 66.1328125 C-22.19021067 67.41893926 -22.19021067 67.41893926 -19.74609375 67.23046875 C-18.73675781 67.21886719 -17.72742188 67.20726563 -16.6875 67.1953125 C-15.67558594 67.18628906 -14.66367187 67.17726563 -13.62109375 67.16796875 C-12.83863281 67.15636719 -12.05617188 67.14476563 -11.25 67.1328125 C-11.25 65.4828125 -11.25 63.8328125 -11.25 62.1328125 C-14.88 62.1328125 -18.51 62.1328125 -22.25 62.1328125 Z M-7.25 62.1328125 C-7.0079806 66.24714236 -6.57870991 68.6646499 -4.1875 72.0703125 C-0.88647711 74.38805198 0.86715385 74.88950495 4.81640625 74.61328125 C8.29565017 73.74874185 9.73608141 72.00112079 11.75 69.1328125 C12.63527109 65.44839746 12.63527109 65.44839746 12.75 62.1328125 C12.09 62.1328125 11.43 62.1328125 10.75 62.1328125 C10.316875 63.8034375 10.316875 63.8034375 9.875 65.5078125 C8.75 69.1328125 8.75 69.1328125 6.75 71.1328125 C-0.28801396 71.69138504 -0.28801396 71.69138504 -3.1875 70.0078125 C-4.63591512 67.45178581 -4.92815583 65.02941003 -5.25 62.1328125 C-5.91 62.1328125 -6.57 62.1328125 -7.25 62.1328125 Z M16.75 62.1328125 C16.75 63.7828125 16.75 65.4328125 16.75 67.1328125 C20.38 67.1328125 24.01 67.1328125 27.75 67.1328125 C28.08 65.8128125 28.41 64.4928125 28.75 63.1328125 C27.69021067 61.84668574 27.69021067 61.84668574 25.24609375 62.03515625 C24.23675781 62.04675781 23.22742188 62.05835938 22.1875 62.0703125 C21.17558594 62.07933594 20.16367188 62.08835938 19.12109375 62.09765625 C18.33863281 62.10925781 17.55617187 62.12085938 16.75 62.1328125 Z " fill="#7F40FF" transform="translate(45.25,8.8671875)"/>
<path d="M0 0 C2.29474499 1.52374717 3.00525596 2.69823229 4.15234375 5.1796875 C4.63767578 6.19675781 4.63767578 6.19675781 5.1328125 7.234375 C8.16016539 14.76722492 7.74956671 22.76942909 4.96484375 30.3203125 C3.44540903 33.33544078 1.54145043 35.14590893 -1.03515625 37.3046875 C-2.28515625 35.7421875 -2.28515625 35.7421875 -3.03515625 33.3046875 C-2.09730768 31.49366958 -1.14701315 29.68421887 -0.0625 27.95703125 C2.506598 23.8249839 2.4766508 19.04743282 1.96484375 14.3046875 C1.14906706 11.51586952 0.11325619 8.98431653 -1.03515625 6.3046875 C-0.45931193 8.69032827 0.1871197 10.97151534 0.96484375 13.3046875 C1.71924931 20.26747978 0.79420834 25.41454036 -3.03515625 31.3046875 C-4.03515625 32.3046875 -4.03515625 32.3046875 -6.41015625 32.6171875 C-9.03515625 32.3046875 -9.03515625 32.3046875 -10.91015625 30.6171875 C-12.33081009 27.6969546 -11.99809464 26.3539924 -11.03515625 23.3046875 C-10.70515625 22.6446875 -10.37515625 21.9846875 -10.03515625 21.3046875 C-9.73072966 16.83976411 -10.44682905 13.4740464 -12.03515625 9.3046875 C-10.71515625 8.9746875 -9.39515625 8.6446875 -8.03515625 8.3046875 C-5.00972167 13.34707847 -4.75439868 16.59595022 -5.03515625 22.3046875 C-5.03515625 23.2946875 -5.03515625 24.2846875 -5.03515625 25.3046875 C-3.7603196 18.28913591 -3.7603196 18.28913591 -5.47265625 11.5546875 C-7.1507095 8.06433673 -7.72777422 6.11408635 -7.03515625 2.3046875 C-3.20898641 -1.09635236 -3.20898641 -1.09635236 0 0 Z " fill="#6E46FF" transform="translate(88.03515625,29.6953125)"/>
<path d="M0 0 C4.875 1.875 4.875 1.875 6 3 C6.33609819 6.61305558 6.19511045 8.62603831 4.5 11.875 C1.9660345 17.1540948 2.59029082 22.36116329 4 28 C4.66 28 5.32 28 6 28 C5.67 27.34 5.34 26.68 5 26 C3.22057737 20.6617321 3.3241763 16.57692197 5.5 11.5 C5.995 10.675 6.49 9.85 7 9 C8.32 9.33 9.64 9.66 11 10 C10.67 10.86625 10.34 11.7325 10 12.625 C8.79306399 16.69840905 8.05656567 20.16862748 10.0625 24.0625 C11.36006602 26.74413644 10.94889198 28.22631575 10 31 C7 33 7 33 4.5625 33.125 C1.09422217 31.60234144 0.22348402 29.78044743 -1.2734375 26.37890625 C-3.50220258 19.08149801 -2.01788645 12.79024451 1 6 C-2.56035542 11.57273022 -3.87632288 16.33084145 -3 23 C-2.0903861 25.64542734 -1.04086692 28.16088741 0.125 30.703125 C1 33 1 33 1 37 C0.01 37 -0.98 37 -2 37 C-7.67313434 29.7796472 -8.79443983 22.94986117 -8 14 C-6.79235454 7.87686013 -4.77950783 4.0044525 0 0 Z " fill="#6F47FF" transform="translate(9,29)"/>
<path d="M0 0 C1.27875 0.00257812 2.5575 0.00515625 3.875 0.0078125 C5.15375 0.00523438 6.4325 0.00265625 7.75 0 C10.875 0.1328125 10.875 0.1328125 11.875 1.1328125 C11.63292934 4.40076646 11.40403176 7.16810753 9.8125 10.0703125 C6.61274742 11.82501553 3.3755106 11.7596645 -0.125 11.1328125 C-2.625 9.5078125 -2.625 9.5078125 -4.125 7.1328125 C-4.4375 3.9453125 -4.4375 3.9453125 -4.125 1.1328125 C-3.125 0.1328125 -3.125 0.1328125 0 0 Z " fill="#C99DFF" transform="translate(44.125,69.8671875)"/>
<path d="M0 0 C0 1.32 0 2.64 0 4 C-1.0725 4.226875 -2.145 4.45375 -3.25 4.6875 C-7.48550109 6.16992538 -8.68649219 7.22983913 -11 11 C-12.25556887 14.17921787 -12.25556887 14.17921787 -13 17 C-14.32 17 -15.64 17 -17 17 C-16.78803405 10.95897042 -15.72258153 7.92727521 -11.66796875 3.4453125 C-7.89121918 0.17271919 -4.94129618 -0.22460437 0 0 Z " fill="#B6A1FF" transform="translate(48,24)"/>
<path d="M0 0 C4.62 0 9.24 0 14 0 C14.33 1.65 14.66 3.3 15 5 C9.72 4.67 4.44 4.34 -1 4 C-0.67 2.68 -0.34 1.36 0 0 Z " fill="#B096FF" transform="translate(41,70)"/>
<path d="M0 0 C0 1.32 0 2.64 0 4 C-1.43333021 4.39063507 -2.87192679 4.76198474 -4.3125 5.125 C-5.51326172 5.43824219 -5.51326172 5.43824219 -6.73828125 5.7578125 C-9 6 -9 6 -12 4 C-7.81413519 0.81076967 -5.29441695 -0.50423019 0 0 Z " fill="#97AEFF" transform="translate(48,24)"/>
<path d="M0 0 C3.63 0 7.26 0 11 0 C10.67 0.99 10.34 1.98 10 3 C8.72125 3.061875 7.4425 3.12375 6.125 3.1875 C5.40570313 3.22230469 4.68640625 3.25710937 3.9453125 3.29296875 C3.30335937 3.19628906 2.66140625 3.09960938 2 3 C1.34 2.01 0.68 1.02 0 0 Z " fill="#DD94FF" transform="translate(42,78)"/>
<path d="M0 0 C1.32 0 2.64 0 4 0 C3.67 1.98 3.34 3.96 3 6 C1.68 6 0.36 6 -1 6 C-1.042721 4.33388095 -1.04063832 2.66617115 -1 1 C-0.67 0.67 -0.34 0.34 0 0 Z " fill="#DA95FF" transform="translate(32,35)"/>
</svg>
