<?xml version="1.0" encoding="UTF-8"?>
<svg version="1.1" xmlns="http://www.w3.org/2000/svg" width="96" height="96">
<path d="M0 0 C0.71778122 -0.00807175 1.43556244 -0.01614349 2.1750946 -0.02445984 C3.69572538 -0.03829661 5.21638716 -0.0490206 6.73706055 -0.05688477 C9.05512917 -0.07407717 11.37176344 -0.11796056 13.68945312 -0.16210938 C15.16795828 -0.17223852 16.64647554 -0.18075394 18.125 -0.1875 C18.81475418 -0.20500809 19.50450836 -0.22251617 20.21516418 -0.24055481 C25.00670023 -0.21911576 27.39843928 0.85373763 30.76171875 4.23828125 C32.63077223 7.9763882 32.03288397 12.43659303 32.07421875 16.55078125 C32.11772461 17.97680664 32.11772461 17.97680664 32.16210938 19.43164062 C32.20248163 23.87569443 32.22291715 26.48229624 29.8671875 30.34375 C26.58543572 33.29671774 24.70182824 33.30431034 20.38671875 33.42578125 C17.4352316 33.58795288 17.4352316 33.58795288 14.76171875 34.23828125 C12.17614337 37.03125215 12.17614337 37.03125215 10.76171875 40.23828125 C7.67283353 42.29753806 7.05235948 42.47731865 3.57421875 42.36328125 C2.31609375 42.32203125 1.05796875 42.28078125 -0.23828125 42.23828125 C-0.23828125 40.91828125 -0.23828125 39.59828125 -0.23828125 38.23828125 C0.42171875 37.90828125 1.08171875 37.57828125 1.76171875 37.23828125 C1.76171875 36.57828125 1.76171875 35.91828125 1.76171875 35.23828125 C0.64023438 35.00044922 0.64023438 35.00044922 -0.50390625 34.7578125 C-8.51619192 32.85961393 -8.51619192 32.85961393 -11.92578125 29.92578125 C-13.45199551 26.80067585 -13.55793047 24.67451035 -13.23828125 21.23828125 C-14.88458453 21.37871002 -16.53032304 21.52577454 -18.17578125 21.67578125 C-19.09230469 21.75699219 -20.00882813 21.83820312 -20.953125 21.921875 C-23.19987857 21.99873101 -23.19987857 21.99873101 -24.23828125 23.23828125 C-24.3393138 26.03821722 -24.37798213 28.81296769 -24.37109375 31.61328125 C-24.37205048 32.45294434 -24.3730072 33.29260742 -24.37399292 34.15771484 C-24.37467473 35.9365242 -24.37282042 37.71533602 -24.36865234 39.49414062 C-24.36330408 42.22661901 -24.3685973 44.95893301 -24.375 47.69140625 C-24.37433922 49.41536495 -24.37305806 51.13932354 -24.37109375 52.86328125 C-24.37311798 53.68618652 -24.37514221 54.5090918 -24.37722778 55.35693359 C-24.72403585 59.10207991 -24.72403585 59.10207991 -23.23828125 62.23828125 C-21.32369843 62.33799911 -19.40545808 62.36908714 -17.48828125 62.37109375 C-15.7403125 62.37302734 -15.7403125 62.37302734 -13.95703125 62.375 C-12.11625 62.36919922 -12.11625 62.36919922 -10.23828125 62.36328125 C-9.01109375 62.36714844 -7.78390625 62.37101562 -6.51953125 62.375 C-5.35421875 62.37371094 -4.18890625 62.37242188 -2.98828125 62.37109375 C-1.910625 62.36996582 -0.83296875 62.36883789 0.27734375 62.36767578 C2.70391872 62.51920496 2.70391872 62.51920496 3.76171875 61.23828125 C3.99850591 58.54592349 4.183699 55.87329969 4.32421875 53.17578125 C4.38899414 52.03786133 4.38899414 52.03786133 4.45507812 50.87695312 C4.56145508 48.99762687 4.66211809 47.11797881 4.76171875 45.23828125 C5.75171875 45.23828125 6.74171875 45.23828125 7.76171875 45.23828125 C7.79060021 48.55076312 7.80847674 51.86321292 7.82421875 55.17578125 C7.83259766 56.12130859 7.84097656 57.06683594 7.84960938 58.04101562 C7.85283203 58.94013672 7.85605469 59.83925781 7.859375 60.765625 C7.86461182 61.59827881 7.86984863 62.43093262 7.87524414 63.28881836 C7.76171875 65.23828125 7.76171875 65.23828125 6.76171875 66.23828125 C4.25247722 66.33915337 1.77135491 66.37800157 -0.73828125 66.37109375 C-1.48916016 66.37205048 -2.24003906 66.3730072 -3.01367188 66.37399292 C-4.60416752 66.37467463 -6.19466592 66.37282097 -7.78515625 66.36865234 C-10.2279278 66.36330392 -12.67051546 66.36859759 -15.11328125 66.375 C-16.65494832 66.37433922 -18.19661528 66.37305805 -19.73828125 66.37109375 C-20.47369141 66.37311798 -21.20910156 66.37514221 -21.96679688 66.37722778 C-27.12332964 66.35323286 -27.12332964 66.35323286 -28.23828125 65.23828125 C-28.33642112 63.80087772 -28.36626405 62.35871798 -28.36767578 60.91796875 C-28.37082794 60.00031738 -28.3739801 59.08266602 -28.37722778 58.13720703 C-28.37520355 57.13931152 -28.37317932 56.14141602 -28.37109375 55.11328125 C-28.37205048 54.0960498 -28.3730072 53.07881836 -28.37399292 52.03076172 C-28.37467486 49.87532489 -28.3728196 47.71988603 -28.36865234 45.56445312 C-28.3633043 42.25255754 -28.36859688 38.94079758 -28.375 35.62890625 C-28.37433922 33.54036428 -28.37305806 31.4518224 -28.37109375 29.36328125 C-28.3741301 27.86643799 -28.3741301 27.86643799 -28.37722778 26.33935547 C-28.37407562 25.4217041 -28.37092346 24.50405273 -28.36767578 23.55859375 C-28.36688019 22.74664551 -28.36608459 21.93469727 -28.36526489 21.09814453 C-28.23828125 19.23828125 -28.23828125 19.23828125 -27.23828125 18.23828125 C-24.8851457 18.16556384 -22.52994457 18.15457257 -20.17578125 18.17578125 C-18.88542969 18.18480469 -17.59507813 18.19382812 -16.265625 18.203125 C-15.26660156 18.21472656 -14.26757812 18.22632812 -13.23828125 18.23828125 C-13.23828125 17.24828125 -13.23828125 16.25828125 -13.23828125 15.23828125 C-15.34277063 15.37938111 -17.44686895 15.526323 -19.55078125 15.67578125 C-21.30841797 15.79759766 -21.30841797 15.79759766 -23.1015625 15.921875 C-26.26419083 16.12501835 -26.26419083 16.12501835 -29.23828125 17.23828125 C-30.21654607 20.1730757 -30.36488868 22.06445277 -30.36767578 25.12109375 C-30.37082794 26.11222168 -30.3739801 27.10334961 -30.37722778 28.12451172 C-30.37520355 29.19330566 -30.37317932 30.26209961 -30.37109375 31.36328125 C-30.37205048 32.46172363 -30.3730072 33.56016602 -30.37399292 34.69189453 C-30.3746737 37.01530006 -30.3728265 39.33870749 -30.36865234 41.66210938 C-30.3633027 45.22400168 -30.36860081 48.78576788 -30.375 52.34765625 C-30.3743392 54.60286486 -30.373058 56.8580734 -30.37109375 59.11328125 C-30.37311798 60.1820752 -30.37514221 61.25086914 -30.37722778 62.35205078 C-30.37249954 63.83874268 -30.37249954 63.83874268 -30.36767578 65.35546875 C-30.36688019 66.22800293 -30.36608459 67.10053711 -30.36526489 67.99951172 C-30.32661817 70.40993226 -30.32661817 70.40993226 -29.23828125 73.23828125 C-25.67520423 74.42597359 -22.81062801 74.3678461 -19.05078125 74.37109375 C-18.35186768 74.37205048 -17.6529541 74.3730072 -16.93286133 74.37399292 C-15.45686757 74.37467266 -13.9808708 74.3728327 -12.50488281 74.36865234 C-10.24667644 74.36330114 -7.98866895 74.36860423 -5.73046875 74.375 C-4.29557248 74.37433918 -2.86067633 74.37305794 -1.42578125 74.37109375 C-0.11996094 74.36996582 1.18585937 74.36883789 2.53125 74.36767578 C5.77715122 74.38758481 5.77715122 74.38758481 8.76171875 73.23828125 C9.86242635 69.93615845 9.96798947 67.29744846 10.078125 63.8203125 C10.12001953 62.56669922 10.16191406 61.31308594 10.20507812 60.02148438 C10.24439453 58.71115234 10.28371094 57.40082031 10.32421875 56.05078125 C10.36742867 54.71548147 10.41104375 53.38019473 10.45507812 52.04492188 C10.56128377 48.77614828 10.66332872 45.50729792 10.76171875 42.23828125 C11.75171875 42.23828125 12.74171875 42.23828125 13.76171875 42.23828125 C13.83587942 46.88302107 13.8903249 51.52741624 13.92651367 56.17260742 C13.94159969 57.75274661 13.96207125 59.33284394 13.98803711 60.9128418 C14.02443001 63.1841871 14.04144637 65.45497884 14.0546875 67.7265625 C14.07017136 68.43291336 14.08565521 69.13926422 14.10160828 69.86701965 C14.10329448 74.78185163 14.10329448 74.78185163 12.49971008 76.92463684 C10.36614758 78.53727 9.26691305 78.61779356 6.61328125 78.62646484 C5.36683838 78.64064957 5.36683838 78.64064957 4.09521484 78.65512085 C2.75450928 78.64601181 2.75450928 78.64601181 1.38671875 78.63671875 C0.46584473 78.63958893 -0.4550293 78.64245911 -1.40380859 78.64541626 C-3.35059219 78.64745756 -5.29739627 78.64192308 -7.24414062 78.62939453 C-10.22702824 78.61334181 -13.20856086 78.62924097 -16.19140625 78.6484375 C-18.08203425 78.64645508 -19.9726614 78.64261143 -21.86328125 78.63671875 C-22.75708496 78.64279144 -23.65088867 78.64886414 -24.57177734 78.65512085 C-25.40273926 78.64566437 -26.23370117 78.63620789 -27.08984375 78.62646484 C-27.82025879 78.62407806 -28.55067383 78.62169128 -29.30322266 78.61923218 C-31.90165101 78.10768504 -32.73741556 77.41935399 -34.23828125 75.23828125 C-34.61923218 72.61987305 -34.61923218 72.61987305 -34.62646484 69.4375 C-34.63592133 68.24616455 -34.64537781 67.0548291 -34.65512085 65.82739258 C-34.64904816 64.53986084 -34.64297546 63.2523291 -34.63671875 61.92578125 C-34.6387398 60.5920394 -34.64165151 59.25829862 -34.64541626 57.92456055 C-34.64983821 55.13026399 -34.64341315 52.33625527 -34.62939453 49.54199219 C-34.61230219 45.9605366 -34.62214414 42.37975543 -34.64011192 38.79832458 C-34.65095356 36.04450399 -34.64750179 33.29084324 -34.63972855 30.53701782 C-34.63675454 28.5743974 -34.64586417 26.61177077 -34.65512085 24.64916992 C-34.64093613 22.86216675 -34.64093613 22.86216675 -34.62646484 21.0390625 C-34.62407806 19.98887939 -34.62169128 18.93869629 -34.61923218 17.85668945 C-34.23828125 15.23828125 -34.23828125 15.23828125 -32.83857727 13.39701843 C-30.76930724 11.89870806 -29.54568932 11.89131512 -27.0078125 11.9453125 C-26.20537109 11.95498047 -25.40292969 11.96464844 -24.57617188 11.97460938 C-23.74279297 11.99974609 -22.90941406 12.02488281 -22.05078125 12.05078125 C-21.20580078 12.06431641 -20.36082031 12.07785156 -19.49023438 12.09179688 C-17.40597741 12.12712326 -15.32204848 12.18092986 -13.23828125 12.23828125 C-13.27695312 11.30628906 -13.315625 10.37429687 -13.35546875 9.4140625 C-13.20792369 5.41559128 -11.97938829 4.06000908 -9.23828125 1.23828125 C-6.27760487 -0.24205694 -3.24866204 0.03448796 0 0 Z M-9.23828125 7.23828125 C-10.31528006 10.37323958 -10.40291412 13.37834089 -10.42578125 16.67578125 C-10.43996094 17.60261719 -10.45414063 18.52945312 -10.46875 19.484375 C-10.1269421 23.56868973 -9.14480878 26.33175372 -6.23828125 29.23828125 C-3.87632714 29.8443079 -3.87632714 29.8443079 -1.23828125 30.23828125 C3.53949653 31.01605903 3.53949653 31.01605903 5.76171875 33.23828125 C6.45920458 34.55575449 7.13131832 35.88742318 7.76171875 37.23828125 C8.15359375 36.28953125 8.54546875 35.34078125 8.94921875 34.36328125 C10.67657756 31.67137536 11.63997653 31.26770488 14.81640625 30.5 C17.12711545 30.20408512 19.44444095 29.95541614 21.765625 29.7578125 C24.71791514 29.46669306 24.71791514 29.46669306 26.6015625 27.9375 C28.9730317 24.46413602 28.92071153 20.91152221 28.94921875 16.80078125 C28.96339844 15.87394531 28.97757813 14.94710938 28.9921875 13.9921875 C28.6503796 9.90787277 27.66824628 7.14480878 24.76171875 4.23828125 C19.8294548 2.55175654 14.46907382 3.05396692 9.32421875 3.05078125 C8.28716797 3.03853516 7.25011719 3.02628906 6.18164062 3.01367188 C5.17810547 3.01173828 4.17457031 3.00980469 3.140625 3.0078125 C2.22869385 3.00370361 1.3167627 2.99959473 0.37719727 2.99536133 C-3.63345407 3.36786185 -6.38399359 4.38399359 -9.23828125 7.23828125 Z " fill="#7744FF" transform="translate(49.23828125,8.76171875)"/>
<path d="M0 0 C3 0.25 3 0.25 5 2.25 C5.25 4.75 5.25 4.75 5 7.25 C3 9.25 3 9.25 0 9.5 C-3 9.25 -3 9.25 -5 7.25 C-5.25 4.75 -5.25 4.75 -5 2.25 C-3 0.25 -3 0.25 0 0 Z " fill="#BFB3FF" transform="translate(66,20.75)"/>
<path d="M0 0 C3 0.25 3 0.25 5 2.25 C5.25 4.75 5.25 4.75 5 7.25 C3 9.25 3 9.25 0 9.5 C-3 9.25 -3 9.25 -5 7.25 C-5.25 4.75 -5.25 4.75 -5 2.25 C-3 0.25 -3 0.25 0 0 Z " fill="#BFB3FF" transform="translate(51,20.75)"/>
<path d="M0 0 C5.94 0 11.88 0 18 0 C18 0.99 18 1.98 18 3 C12.06 3 6.12 3 0 3 C0 2.01 0 1.02 0 0 Z " fill="#883DFF" transform="translate(30,57)"/>
<path d="M0 0 C5.94 0 11.88 0 18 0 C18 0.99 18 1.98 18 3 C12.06 3 6.12 3 0 3 C0 2.01 0 1.02 0 0 Z " fill="#7B43FF" transform="translate(30,51)"/>
<path d="M0 0 C3.96 0 7.92 0 12 0 C12 0.99 12 1.98 12 3 C8.04 3 4.08 3 0 3 C0 2.01 0 1.02 0 0 Z " fill="#6D49FF" transform="translate(30,45)"/>
<path d="M0 0 C1.98 0 3.96 0 6 0 C6.66 1.32 7.32 2.64 8 4 C4.7 4 1.4 4 -2 4 C-1.34 2.68 -0.68 1.36 0 0 Z " fill="#8CBFFF" transform="translate(63,21)"/>
<path d="M0 0 C1.98 0 3.96 0 6 0 C6.66 1.32 7.32 2.64 8 4 C4.7 4 1.4 4 -2 4 C-1.34 2.68 -0.68 1.36 0 0 Z " fill="#8CBFFF" transform="translate(48,21)"/>
<path d="M0 0 C3.3 0 6.6 0 10 0 C10 0.99 10 1.98 10 3 C6.7 3 3.4 3 0 3 C0 2.01 0 1.02 0 0 Z " fill="#B728FF" transform="translate(34,78)"/>
</svg>
