<?xml version="1.0" encoding="UTF-8"?>
<svg version="1.1" xmlns="http://www.w3.org/2000/svg" width="96" height="96">
<path d="M0 0 C0.99026436 -0.00503792 0.99026436 -0.00503792 2.00053406 -0.01017761 C4.19316465 -0.01971328 6.38571908 -0.02163203 8.57836914 -0.02270508 C10.09672579 -0.02591588 11.61508213 -0.02927981 13.13343811 -0.03279114 C16.32041135 -0.03878898 19.50735745 -0.04063037 22.69433594 -0.04003906 C26.78472139 -0.03993741 30.87493336 -0.05358976 34.96527767 -0.07081127 C38.10247095 -0.08191204 41.23962205 -0.08395887 44.37683296 -0.08342934 C45.88516399 -0.08461236 47.393496 -0.08905208 48.90180779 -0.0967617 C51.00888198 -0.10652294 53.11557637 -0.10369915 55.22265625 -0.09765625 C57.02348915 -0.09979378 57.02348915 -0.09979378 58.86070251 -0.10197449 C61.67602539 0.14526367 61.67602539 0.14526367 63.67602539 2.14526367 C64.3635584 3.80343151 65.03163822 5.46985703 65.67602539 7.14526367 C66.17102539 7.64026367 66.17102539 7.64026367 66.67602539 8.14526367 C66.77999557 9.82234791 66.81455448 11.50379159 66.82128906 13.18408203 C66.82766891 14.25867172 66.83404877 15.33326141 66.84062195 16.44041443 C66.84173477 17.61016312 66.8428476 18.7799118 66.84399414 19.98510742 C66.84898674 21.77374962 66.84898674 21.77374962 66.8540802 23.598526 C66.85915455 26.1263897 66.86148837 28.65426012 66.86132812 31.18212891 C66.86351399 35.06253022 66.88166296 38.94264713 66.90063477 42.82299805 C66.90356862 45.27286686 66.90555347 47.72273703 66.90649414 50.17260742 C66.91367966 51.34033188 66.92086517 52.50805634 66.92826843 53.71116638 C66.9251918 54.78890823 66.92211517 55.86665009 66.91894531 56.97705078 C66.92037033 57.92889755 66.92179535 58.88074432 66.92326355 59.86143494 C66.67602539 62.14526367 66.67602539 62.14526367 64.67602539 64.14526367 C61.63964844 64.39923096 61.63964844 64.39923096 57.68774414 64.40405273 C56.60947861 64.40930969 56.60947861 64.40930969 55.50942993 64.41467285 C53.12736424 64.42349332 50.74559424 64.41764003 48.36352539 64.41088867 C46.71207624 64.41223523 45.06062748 64.41417569 43.40917969 64.41668701 C39.94568106 64.4196387 36.48228549 64.41533924 33.01879883 64.40600586 C28.57307228 64.39461126 24.12758719 64.4011705 19.68186951 64.41315079 C16.27101818 64.42036821 12.86022437 64.41808201 9.44937134 64.4128952 C7.80986503 64.41155838 6.17035354 64.41320757 4.53085327 64.41785431 C2.24186313 64.42291767 -0.04673269 64.4152123 -2.33569336 64.40405273 C-3.63982178 64.40246155 -4.9439502 64.40087036 -6.28759766 64.39923096 C-9.32397461 64.14526367 -9.32397461 64.14526367 -11.32397461 62.14526367 C-11.57794189 59.86816406 -11.57794189 59.86816406 -11.58276367 56.99291992 C-11.58906799 55.91840576 -11.59537231 54.8438916 -11.60186768 53.73681641 C-11.59781921 52.572229 -11.59377075 51.4076416 -11.58959961 50.20776367 C-11.59151306 49.01675049 -11.59342651 47.8257373 -11.59539795 46.59863281 C-11.59676091 44.07673939 -11.59305677 41.55483898 -11.5847168 39.03295898 C-11.57401914 35.16138019 -11.58460867 31.29026545 -11.59741211 27.41870117 C-11.59609053 24.97338764 -11.59352818 22.5280744 -11.58959961 20.08276367 C-11.59364807 18.91817627 -11.59769653 17.75358887 -11.60186768 16.55371094 C-11.59556335 15.47919678 -11.58925903 14.40468262 -11.58276367 13.29760742 C-11.58117249 12.34877686 -11.5795813 11.39994629 -11.57794189 10.42236328 C-11.32397461 8.14526367 -11.32397461 8.14526367 -9.32397461 6.14526367 C-8.6364416 4.48709583 -7.96836178 2.82067031 -7.32397461 1.14526367 C-5.47796149 -0.70074945 -2.47091969 0.00785044 0 0 Z M-4.32397461 4.14526367 C-4.65397461 4.80526367 -4.98397461 5.46526367 -5.32397461 6.14526367 C16.45602539 6.14526367 38.23602539 6.14526367 60.67602539 6.14526367 C60.18102539 5.15526367 60.18102539 5.15526367 59.67602539 4.14526367 C38.55602539 4.14526367 17.43602539 4.14526367 -4.32397461 4.14526367 Z M-7.32397461 10.14526367 C-4.46980381 12.42860031 -1.64117896 14.68912996 1.27758789 16.87963867 C1.92743652 17.36787109 2.57728516 17.85610352 3.24682617 18.35913086 C5.35641429 19.93668356 7.46921146 21.50987065 9.58227539 23.08276367 C12.06372652 24.93006618 14.52394369 26.79759829 16.95727539 28.70776367 C18.36493164 29.79057617 18.36493164 29.79057617 19.80102539 30.89526367 C20.60797852 31.52948242 21.41493164 32.16370117 22.24633789 32.81713867 C25.4499206 34.56829321 27.06223123 34.75799857 30.67602539 34.14526367 C33.35753116 32.64639415 35.67304461 30.76870661 38.05102539 28.83276367 C39.45230516 27.73338699 40.85602734 26.63711752 42.26196289 25.54370117 C42.98222656 24.98134766 43.70249023 24.41899414 44.44458008 23.83959961 C48.76841867 20.55650991 53.2886976 17.5561804 57.79858398 14.53662109 C59.43992308 13.42883082 61.0604713 12.2903306 62.67602539 11.14526367 C62.67602539 10.81526367 62.67602539 10.48526367 62.67602539 10.14526367 C39.57602539 10.14526367 16.47602539 10.14526367 -7.32397461 10.14526367 Z M-8.32397461 15.14526367 C-8.34924585 21.39322042 -8.36680805 27.64116409 -8.37890625 33.88916016 C-8.38394759 36.01644381 -8.39078052 38.14372398 -8.39941406 40.27099609 C-8.4114884 43.32154193 -8.41720475 46.37204213 -8.42163086 49.42260742 C-8.42679214 50.37989243 -8.43195343 51.33717743 -8.43727112 52.32347107 C-8.43734665 53.20430862 -8.43742218 54.08514618 -8.4375 54.99267578 C-8.43972061 55.77211044 -8.44194122 56.5515451 -8.44422913 57.354599 C-8.51968847 59.16892902 -8.51968847 59.16892902 -7.32397461 60.14526367 C-5.15134781 60.24482645 -2.97544355 60.27326086 -0.80053711 60.2746582 C-0.11924744 60.27641052 0.56204224 60.27816284 1.26397705 60.27996826 C3.52635206 60.28438609 5.78864952 60.28144905 8.05102539 60.27807617 C9.61661799 60.27874923 11.18221049 60.27971927 12.74780273 60.28097534 C16.03313184 60.28245222 19.31843381 60.28029808 22.60375977 60.27563477 C26.82423055 60.26993748 31.04463775 60.27321653 35.2651062 60.27920723 C38.49919111 60.28281311 41.73326084 60.28167413 44.96734619 60.27907944 C46.5239462 60.27841024 48.08054757 60.27923833 49.637146 60.28155899 C51.80899735 60.28408597 53.98074435 60.28024432 56.15258789 60.2746582 C58.01004639 60.27346481 58.01004639 60.27346481 59.9050293 60.27224731 C62.58457281 60.46138144 62.58457281 60.46138144 63.67602539 59.14526367 C63.76880869 57.76366253 63.79349582 56.3773833 63.78955078 54.99267578 C63.78947525 54.11183823 63.78939972 53.23100067 63.7893219 52.32347107 C63.78416061 51.36618607 63.77899933 50.40890106 63.77368164 49.42260742 C63.77226669 48.44739639 63.77085175 47.47218536 63.76939392 46.46742249 C63.76377672 43.33917224 63.75122132 40.21099244 63.73852539 37.08276367 C63.73351261 34.96753033 63.72894932 32.85229587 63.72485352 30.73706055 C63.7138017 25.53977071 63.69704685 20.34252222 63.67602539 15.14526367 C55.60150024 20.13117787 48.00055563 25.51864933 40.50805664 31.3347168 C35.98094306 34.75792829 32.33280059 37.23989891 26.67602539 38.14526367 C19.93472749 35.82067819 14.69143468 31.19202776 9.14868164 26.82885742 C5.65929082 24.10075209 2.06883408 21.53861713 -1.57397461 19.02026367 C-2.65163086 18.27518555 -3.72928711 17.53010742 -4.83959961 16.76245117 C-6.96959541 15.05433966 -6.96959541 15.05433966 -8.32397461 15.14526367 Z " fill="#604EFF" transform="translate(20.323974609375,15.854736328125)"/>
<path d="M0 0 C13.2 0 26.4 0 40 0 C38.59474652 5.62101391 35.40329166 7.09551133 30.8125 10.3125 C30.05646484 10.87517578 29.30042969 11.43785156 28.52148438 12.01757812 C25.26205963 14.32716184 23.00439981 15.92612801 18.97265625 16.22265625 C14.69525334 14.4633565 11.27131104 11.94050599 7.625 9.125 C6.88894531 8.58230469 6.15289062 8.03960937 5.39453125 7.48046875 C1.38432508 4.43747372 1.38432508 4.43747372 0 3 C0 2.01 0 1.02 0 0 Z " fill="#8FBFFF" transform="translate(28,30)"/>
<path d="M0 0 C13.2 0 26.4 0 40 0 C39.67 1.32 39.34 2.64 39 4 C26.46 4 13.92 4 1 4 C0.67 2.68 0.34 1.36 0 0 Z " fill="#79C4FF" transform="translate(28,30)"/>
<path d="M0 0 C7.59 0 15.18 0 23 0 C23 0.66 23 1.32 23 2 C19.40557574 5.15510574 15.76324892 7.85606131 10.9375 8.25 C6.79909667 6.4889773 3.35018156 3.99305561 0 1 C0 0.67 0 0.34 0 0 Z " fill="#B3B6FF" transform="translate(36,38)"/>
<path d="M0 0 C4.95 0 9.9 0 15 0 C15 1.32 15 2.64 15 4 C10.05 4 5.1 4 0 4 C0 2.68 0 1.36 0 0 Z " fill="#B12BFF" transform="translate(66,70)"/>
<path d="M0 0 C9.9 0 19.8 0 30 0 C25.79255023 3.15558733 25.29964674 3.36941662 20.4296875 3.14453125 C19.36878906 3.09876953 18.30789062 3.05300781 17.21484375 3.00585938 C16.11269531 2.94205078 15.01054688 2.87824219 13.875 2.8125 C12.76511719 2.76802734 11.65523437 2.72355469 10.51171875 2.67773438 C2.27123038 2.27123038 2.27123038 2.27123038 0 0 Z " fill="#9EBBFF" transform="translate(33,36)"/>
<path d="M0 0 C3.96 0 7.92 0 12 0 C12 1.32 12 2.64 12 4 C8.04 4 4.08 4 0 4 C0 2.68 0 1.36 0 0 Z " fill="#A033FF" transform="translate(69,64)"/>
<path d="M0 0 C4.62 0 9.24 0 14 0 C9 4 9 4 5.875 3.9375 C3 3 3 3 0 0 Z " fill="#D1B1FF" transform="translate(41,42)"/>
<path d="M0 0 C0.99 0 1.98 0 3 0 C3 2.31 3 4.62 3 7 C2.01 7 1.02 7 0 7 C0 4.69 0 2.38 0 0 Z " fill="#AC2DFF" transform="translate(27,67)"/>
<path d="M0 0 C0.99 0 1.98 0 3 0 C3 2.31 3 4.62 3 7 C2.01 7 1.02 7 0 7 C0 4.69 0 2.38 0 0 Z " fill="#AC2DFF" transform="translate(21,67)"/>
<path d="M0 0 C0.99 0 1.98 0 3 0 C3 2.31 3 4.62 3 7 C2.01 7 1.02 7 0 7 C0 4.69 0 2.38 0 0 Z " fill="#AC2DFF" transform="translate(15,67)"/>
</svg>
